<svg xmlns="http://www.w3.org/2000/svg" width="100" height="100" viewBox="0 0 100 100">
  <g id="contact_phone" transform="translate(-158 -180)">
    <rect id="Rectangle_15" data-name="Rectangle 15" width="100" height="100" transform="translate(158 180)" fill="none"/>
    <path id="Icon_awesome-mobile" data-name="Icon awesome-mobile" d="M38.565,0H6.806A6.807,6.807,0,0,0,0,6.806V65.788a6.807,6.807,0,0,0,6.806,6.806h31.76a6.807,6.807,0,0,0,6.806-6.806V6.806A6.807,6.807,0,0,0,38.565,0ZM22.685,68.056a4.537,4.537,0,1,1,4.537-4.537A4.532,4.532,0,0,1,22.685,68.056Z" transform="translate(185.565 193.703)"/>
  </g>
</svg>
