<svg xmlns="http://www.w3.org/2000/svg" width="100" height="100" viewBox="0 0 100 100">
  <g id="github" transform="translate(-643 -761)">
    <circle id="Ellipse_6" data-name="Ellipse 6" cx="50" cy="50" r="50" transform="translate(643 761)" fill="#32de84"/>
    <path id="Icon_awesome-github" data-name="Icon awesome-github" d="M21.919,52.011c0,.264-.3.476-.687.476-.436.04-.74-.172-.74-.476,0-.264.3-.476.687-.476C21.576,51.5,21.919,51.707,21.919,52.011Zm-4.109-.595c-.092.264.172.568.568.647A.62.62,0,0,0,19.2,51.8c.079-.264-.172-.568-.568-.687A.678.678,0,0,0,17.81,51.417Zm5.84-.225c-.383.092-.647.344-.608.647.04.264.383.436.78.344s.647-.344.608-.608S24.033,51.152,23.65,51.192ZM32.344.563C14.018.563,0,14.475,0,32.8A33.124,33.124,0,0,0,22.395,64.4c1.691.3,2.286-.74,2.286-1.6,0-.819-.04-5.338-.04-8.112,0,0-9.249,1.982-11.191-3.937,0,0-1.506-3.845-3.673-4.836,0,0-3.026-2.074.211-2.035a6.974,6.974,0,0,1,5.1,3.409c2.893,5.1,7.742,3.633,9.632,2.761A7.343,7.343,0,0,1,26.834,45.6C19.448,44.784,12,43.714,12,31a10.013,10.013,0,0,1,3.118-7.782,12.483,12.483,0,0,1,.344-8.971c2.761-.859,9.116,3.567,9.116,3.567a31.213,31.213,0,0,1,16.595,0s6.355-4.439,9.116-3.567a12.477,12.477,0,0,1,.344,8.971c2.114,2.339,3.409,4.162,3.409,7.782,0,12.75-7.782,13.767-15.168,14.6,1.216,1.044,2.246,3.026,2.246,6.13,0,4.453-.04,9.962-.04,11.045,0,.859.608,1.9,2.286,1.6,13.212-4.386,22.17-16.925,22.17-31.577C65.533,14.475,50.669.563,32.344.563Zm-19.5,45.569c-.172.132-.132.436.092.687.211.211.515.3.687.132.172-.132.132-.436-.092-.687C13.318,46.052,13.014,45.96,12.842,46.132Zm-1.427-1.07c-.092.172.04.383.3.515a.393.393,0,0,0,.568-.092c.092-.172-.04-.383-.3-.515C11.719,44.89,11.508,44.929,11.415,45.061Zm4.281,4.7c-.211.172-.132.568.172.819.3.3.687.344.859.132.172-.172.092-.568-.172-.819C16.264,49.593,15.868,49.554,15.7,49.765ZM14.19,47.823c-.211.132-.211.476,0,.78s.568.436.74.3a.6.6,0,0,0,0-.819C14.745,47.783,14.4,47.651,14.19,47.823Z" transform="translate(660.671 778.492)"/>
  </g>
</svg>
