<svg xmlns="http://www.w3.org/2000/svg" width="100" height="100" viewBox="0 0 100 100">
  <g id="googleplay" transform="translate(-885 -678)">
    <circle id="Ellipse_11" data-name="Ellipse 11" cx="50" cy="50" r="50" transform="translate(885 678)" fill="#32de84"/>
    <path id="Icon_simple-googleplay" data-name="Icon simple-googleplay" d="M1.86,0a1.867,1.867,0,0,0-.12.614V46.927a1.159,1.159,0,0,0,.367.923L24.866,23.74ZM26.4,25.337l5.884,6.071-8.4,4.785S13.208,42.262,7.321,45.641ZM28,23.68l6.312,6.563c.989-.55,8.715-4.968,9.817-5.583,1.164-.674,1.047-1.6.058-2.085-.915-.508-8.641-4.935-9.809-5.652L27.99,23.686Zm-1.6-1.6,5.949-6.318L23.855,10.92S10.012,3,5.407.357L26.4,22.085Z" transform="translate(914.908 704.075)"/>
  </g>
</svg>
