<svg xmlns="http://www.w3.org/2000/svg" width="100" height="100" viewBox="0 0 100 100">
  <g id="instagram" transform="translate(-1170 -746)">
    <circle id="Ellipse_10" data-name="Ellipse 10" cx="50" cy="50" r="50" transform="translate(1170 746)" fill="#32de84"/>
    <path id="Icon_awesome-instagram" data-name="Icon awesome-instagram" d="M24.3,14.073A12.456,12.456,0,1,0,36.754,26.53,12.437,12.437,0,0,0,24.3,14.073Zm0,20.555a8.1,8.1,0,1,1,8.1-8.1,8.113,8.113,0,0,1-8.1,8.1ZM40.169,13.564a2.905,2.905,0,1,1-2.905-2.905A2.9,2.9,0,0,1,40.169,13.564Zm8.25,2.949c-.184-3.892-1.073-7.339-3.924-10.18S38.207,2.6,34.315,2.408c-4.011-.228-16.034-.228-20.045,0-3.881.184-7.329,1.073-10.18,3.914S.361,12.61.165,16.5c-.228,4.011-.228,16.034,0,20.045.184,3.892,1.073,7.339,3.924,10.18s6.288,3.729,10.18,3.924c4.011.228,16.034.228,20.045,0,3.892-.184,7.339-1.073,10.18-3.924s3.729-6.288,3.924-10.18c.228-4.011.228-16.023,0-20.034ZM43.237,40.851a8.2,8.2,0,0,1-4.618,4.618c-3.2,1.268-10.787.976-14.321.976s-11.134.282-14.321-.976a8.2,8.2,0,0,1-4.618-4.618c-1.268-3.2-.976-10.787-.976-14.321S4.1,15.4,5.358,12.209A8.2,8.2,0,0,1,9.977,7.591c3.2-1.268,10.787-.976,14.321-.976s11.134-.282,14.321.976a8.2,8.2,0,0,1,4.618,4.618c1.268,3.2.976,10.787.976,14.321S44.506,37.664,43.237,40.851Z" transform="translate(1195.466 769.225)"/>
  </g>
</svg>
