<svg xmlns="http://www.w3.org/2000/svg" width="100" height="100" viewBox="0 0 100 100">
  <g id="linkedin" transform="translate(-1036 -746)">
    <circle id="Ellipse_9" data-name="Ellipse 9" cx="50" cy="50" r="50" transform="translate(1036 746)" fill="#32de84"/>
    <path id="Icon_awesome-linkedin-in" data-name="Icon awesome-linkedin-in" d="M9.826,43.9H.725V14.59h9.1ZM5.271,10.592a5.3,5.3,0,1,1,5.271-5.321A5.315,5.315,0,0,1,5.271,10.592ZM43.889,43.9H34.808V29.632c0-3.4-.069-7.761-4.732-7.761-4.732,0-5.457,3.694-5.457,7.516V43.9H15.527V14.59h8.729v4h.127a9.563,9.563,0,0,1,8.611-4.733c9.211,0,10.9,6.066,10.9,13.944V43.9Z" transform="translate(1063.801 773.8)"/>
  </g>
</svg>
