<svg xmlns="http://www.w3.org/2000/svg" width="250" height="250" viewBox="0 0 250 250">
  <g id="service2" transform="translate(-1332 -249)">
    <rect id="Rectangle_11" data-name="Rectangle 11" width="250" height="250" rx="24" transform="translate(1332 249)" fill="#32de84"/>
    <path id="Icon_map-painter" data-name="Icon map-painter" d="M113.857,18.491c-.57-2.561-.6-2.893-6.355-2.893h-5.781l-1.156-3.175c-1.525-4.606-6.652-9-11.76-10.277-2.956-.739-13.488-.869-39.189-.69C17.3,1.682,14.191,1.866,10.994,3.3,3.838,6.519-.1,14.626,2.01,21.765A16.269,16.269,0,0,0,10.994,32.4c3.194,1.436,6.308,1.586,38.62,1.81,25.7.181,36.233-.024,39.187-.765,5.124-1.283,10.237-5.83,11.776-10.479,1.16-3.5,1.212-3.531,5-3.281l3.825.252.254,12.066.252,12.063L98.7,46.718c-6.158,1.457-13.871,3.319-17.136,4.14q-8.775,2.174-17.569,4.272L52.356,57.916l0,6.111c0,6.073.53,6.129-3.1,9.161l-3.093,3.048V114.46H62.64V76.236l-3.368-3.088c-3.592-3-3.526-3.222-3.253-7.843l.355-4.75,4.152-1.033c2.262-.572,9.467-2.323,15.994-3.9s17.734-4.279,24.892-6.012l13.012-3.145V33.921c0-6.892-.257-14.008-.567-15.429ZM57.4,104.188c0,1.982-.374,2.392-2.389,2.6-2.537.259-3.634-1-3.093-3.54.212-.991,1.085-1.419,2.893-1.419C57.111,101.831,57.4,102.1,57.4,104.188Z" transform="translate(1398.628 315.666)"/>
  </g>
</svg>
