<svg xmlns="http://www.w3.org/2000/svg" width="100" height="100" viewBox="0 0 100 100">
  <g id="twitter" transform="translate(-768 -746)">
    <circle id="Ellipse_7" data-name="Ellipse 7" cx="50" cy="50" r="50" transform="translate(768 746)" fill="#32de84"/>
    <path id="Icon_awesome-twitter" data-name="Icon awesome-twitter" d="M46.606,13.9c.033.461.033.923.033,1.384,0,14.074-10.712,30.291-30.291,30.291A30.085,30.085,0,0,1,0,40.791a22.024,22.024,0,0,0,2.571.132,21.321,21.321,0,0,0,13.217-4.548,10.665,10.665,0,0,1-9.954-7.383,13.426,13.426,0,0,0,2.011.165,11.26,11.26,0,0,0,2.8-.363A10.648,10.648,0,0,1,2.109,18.345v-.132a10.722,10.722,0,0,0,4.812,1.351,10.662,10.662,0,0,1-3.3-14.239A30.261,30.261,0,0,0,25.577,16.466a12.018,12.018,0,0,1-.264-2.439A10.656,10.656,0,0,1,43.738,6.743,20.96,20.96,0,0,0,50.5,4.172a10.617,10.617,0,0,1-4.68,5.867,21.342,21.342,0,0,0,6.131-1.648,22.885,22.885,0,0,1-5.339,5.5Z" transform="translate(792.027 771.144)"/>
  </g>
</svg>
